<svg width="13" height="13" viewBox="0 0 13 13" fill="none" xmlns="http://www.w3.org/2000/svg">
<path d="M12.1875 1.625H10.5625V0.8125C10.5625 0.325 10.2375 0 9.75 0H8.9375C8.45 0 8.125 0.325 8.125 0.8125V1.625H4.875V0.8125C4.875 0.325 4.55 0 4.0625 0H3.25C2.7625 0 2.4375 0.325 2.4375 0.8125V1.625H0.8125C0.325 1.625 0 1.95 0 2.4375V12.1875C0 12.675 0.325 13 0.8125 13H12.1875C12.675 13 13 12.675 13 12.1875V2.4375C13 1.95 12.675 1.625 12.1875 1.625ZM11.375 11.375H1.625V5.6875H11.375V11.375Z" fill="#66799D"/>
</svg>
