<svg width="16" height="16" viewBox="0 0 16 16" fill="none" xmlns="http://www.w3.org/2000/svg">
<path fill-rule="evenodd" clip-rule="evenodd" d="M8.00001 14.6667C11.6819 14.6667 14.6667 11.6819 14.6667 8.00004C14.6667 4.31814 11.6819 1.33337 8.00001 1.33337C4.31811 1.33337 1.33334 4.31814 1.33334 8.00004C1.33334 11.6819 4.31811 14.6667 8.00001 14.6667ZM8.70001 4.33337C8.70001 3.94677 8.38661 3.63337 8.00001 3.63337C7.61341 3.63337 7.30001 3.94677 7.30001 4.33337V8.00004C7.30001 8.18569 7.37376 8.36374 7.50504 8.49502L9.50504 10.495C9.7784 10.7684 10.2216 10.7684 10.495 10.495C10.7684 10.2216 10.7684 9.77843 10.495 9.50507L8.70001 7.71009V4.33337Z" fill="#66799D"/>
</svg>
