<svg width="14" height="14" viewBox="0 0 14 14" fill="none" xmlns="http://www.w3.org/2000/svg">
<g clip-path="url(#clip0)">
<path fill-rule="evenodd" clip-rule="evenodd" d="M7.00191 7.99929C6.80328 8.00044 6.60882 7.94242 6.4433 7.83262C6.27778 7.72282 6.14871 7.56621 6.07254 7.38277C5.99637 7.19932 5.97656 6.99735 6.01563 6.8026C6.0547 6.60786 6.15088 6.42916 6.29191 6.28929L12.2919 0.289285C12.4832 0.125459 12.7293 0.0398528 12.981 0.0495739C13.2326 0.0592951 13.4714 0.163627 13.6495 0.341722C13.8276 0.519817 13.9319 0.758556 13.9416 1.01023C13.9513 1.26191 13.8657 1.50798 13.7019 1.69929L7.70191 7.69929C7.51728 7.8877 7.26568 7.99553 7.00191 7.99929Z" fill="#66799D"/>
<path fill-rule="evenodd" clip-rule="evenodd" d="M1.00191 13.9993C0.803285 14.0004 0.608816 13.9424 0.443296 13.8326C0.277777 13.7228 0.148705 13.5662 0.0725385 13.3828C-0.00362822 13.1993 -0.0234396 12.9974 0.0156301 12.8026C0.0546997 12.6079 0.15088 12.4292 0.29191 12.2893L6.29191 6.28929C6.48321 6.12546 6.72929 6.03985 6.98096 6.04957C7.23264 6.0593 7.47138 6.16363 7.64947 6.34172C7.82757 6.51982 7.9319 6.75856 7.94162 7.01023C7.95134 7.26191 7.86574 7.50798 7.70191 7.69929L1.70191 13.6993C1.51728 13.8877 1.26568 13.9955 1.00191 13.9993Z" fill="#66799D"/>
<path fill-rule="evenodd" clip-rule="evenodd" d="M7.00173 7.99929C6.87012 8.00006 6.73966 7.97483 6.61782 7.92507C6.49598 7.8753 6.38517 7.80198 6.29173 7.70929L0.291727 1.7093C0.1279 1.51799 0.0422942 1.27192 0.0520153 1.02024C0.0617365 0.768566 0.166069 0.529826 0.344163 0.351732C0.522258 0.173637 0.760997 0.0693048 1.01267 0.0595837C1.26435 0.0498625 1.51043 0.135469 1.70173 0.299295L7.70173 6.29929C7.83877 6.43907 7.93177 6.61598 7.96922 6.80812C8.00666 7.00025 7.98689 7.19914 7.91236 7.38014C7.83783 7.56114 7.71182 7.71629 7.54994 7.82635C7.38807 7.93641 7.19745 7.99655 7.00173 7.99929Z" fill="#66799D"/>
<path fill-rule="evenodd" clip-rule="evenodd" d="M13.0017 13.9993C12.8701 14.0001 12.7397 13.9748 12.6178 13.9251C12.496 13.8753 12.3852 13.802 12.2917 13.7093L6.29173 7.70929C6.1279 7.51799 6.04229 7.27192 6.05202 7.02024C6.06174 6.76857 6.16607 6.52983 6.34416 6.35173C6.52226 6.17364 6.761 6.0693 7.01267 6.05958C7.26435 6.04986 7.51042 6.13547 7.70173 6.29929L13.7017 12.2993C13.8388 12.4391 13.9318 12.616 13.9692 12.8081C14.0067 13.0002 13.9869 13.1991 13.9124 13.3801C13.8378 13.5611 13.7118 13.7163 13.5499 13.8264C13.3881 13.9364 13.1975 13.9965 13.0017 13.9993Z" fill="#66799D"/>
</g>
<defs>
<clipPath id="clip0">
<rect width="14" height="14" fill="white"/>
</clipPath>
</defs>
</svg>
