<svg width="23" height="23" viewBox="0 0 23 23" fill="none" xmlns="http://www.w3.org/2000/svg">
<g clip-path="url(#clip0)">
<path d="M1.09961 4.79175H21.2663V18.2084H1.09961V4.79175Z" fill="#3F51B5"/>
<path d="M1.09961 6.81191L10.6375 12.9064L12.0717 10.4531L3.21161 4.79175H1.09961V6.81191Z" fill="white"/>
<path d="M21.2661 4.79175H19.612L10.7524 10.4526L12.1861 12.9064L21.2661 7.10421V4.79175Z" fill="white"/>
<path d="M12.1861 9.71313L10.7524 12.1665L20.2079 18.2083H21.2661V15.5149L12.1861 9.71313Z" fill="white"/>
<path d="M1.09961 15.8081V18.2083H2.61669L12.0717 12.1669L10.638 9.71313L1.09961 15.8081Z" fill="white"/>
<path d="M1.09961 9.58325H21.2663V13.4166H1.09961V9.58325Z" fill="white"/>
<path d="M9.34961 4.79175H13.0163V18.2084H9.34961V4.79175Z" fill="white"/>
<path d="M1.09961 4.79175H21.2663V18.2084H1.09961V4.79175Z" fill="#ECEFF1"/>
<path d="M11.1831 7.1875C10.0891 7.1875 9.03988 7.64185 8.26629 8.4506C7.4927 9.25935 7.05811 10.3563 7.05811 11.5C7.05811 12.6437 7.4927 13.7406 8.26629 14.5494C9.03988 15.3581 10.0891 15.8125 11.1831 15.8125C12.2771 15.8125 13.3263 15.3581 14.0999 14.5494C14.8735 13.7406 15.3081 12.6437 15.3081 11.5C15.3081 10.3563 14.8735 9.25935 14.0999 8.4506C13.3263 7.64185 12.2771 7.1875 11.1831 7.1875Z" fill="#D50000"/>
</g>
<defs>
<clipPath id="clip0">
<rect width="22" height="23" fill="white" transform="translate(0.183105)"/>
</clipPath>
</defs>
</svg>
