<svg width="23" height="23" viewBox="0 0 23 23" fill="none" xmlns="http://www.w3.org/2000/svg">
<path d="M1.09961 4.79175H21.2663V18.2084H1.09961V4.79175Z" fill="#3F51B5"/>
<path d="M1.09961 6.81191L10.6375 12.9064L12.0717 10.4531L3.21161 4.79175H1.09961V6.81191Z" fill="white"/>
<path d="M21.2661 4.79175H19.612L10.7524 10.4526L12.1861 12.9064L21.2661 7.10421V4.79175Z" fill="white"/>
<path d="M12.1861 9.71313L10.7524 12.1665L20.2079 18.2083H21.2661V15.5149L12.1861 9.71313Z" fill="white"/>
<path d="M1.09961 15.8081V18.2083H2.61669L12.0717 12.1669L10.638 9.71313L1.09961 15.8081Z" fill="white"/>
<path d="M1.09961 9.58325H21.2663V13.4166H1.09961V9.58325Z" fill="white"/>
<path d="M9.34961 4.79175H13.0163V18.2084H9.34961V4.79175Z" fill="white"/>
<path d="M8.07452 9.58341L1.09961 5.12669V6.24985L6.31636 9.58341H8.07452ZM20.4912 4.79175L12.992 9.58341H14.7497L21.2663 5.41994V4.79175H20.4912ZM15.3455 13.4167L21.2663 17.1998V16.0766L17.1032 13.4167H15.3455ZM7.47869 13.4167L1.09961 17.4925V18.2084H1.73761L9.2364 13.4167H7.47869ZM1.09961 10.5417H21.2663V12.4584H1.09961V10.5417Z" fill="#E53935"/>
<path d="M10.2661 4.79175H12.0994V18.2084H10.2661V4.79175Z" fill="#E53935"/>
</svg>
