<svg width="64" height="57" viewBox="0 0 64 57" fill="none" xmlns="http://www.w3.org/2000/svg">
    <path d="M61.4862 8.25644C61.4824 8.25644 61.4785 8.25596 61.4746 8.25596H44.6526V6.40059C44.6526 3.33149 42.1556 0.834473 39.0865 0.834473H24.2435C21.1744 0.834473 18.6774 3.33149 18.6774 6.40059V8.25596H1.85537C0.822355 8.25596 0 9.10247 0 10.1113V50.9295C0 53.9986 2.49702 56.4956 5.56611 56.4956H57.7639C60.833 56.4956 63.33 53.9986 63.33 50.9295V10.1505C63.33 10.148 63.33 10.1456 63.33 10.1432C63.259 8.92466 62.5096 8.26321 61.4862 8.25644ZM22.3881 6.40059C22.3881 5.37772 23.2206 4.54521 24.2435 4.54521H39.0865C40.1094 4.54521 40.9419 5.37772 40.9419 6.40059V8.25596H22.3881V6.40059ZM58.9003 11.9667L53.1385 29.2516C52.8858 30.0107 52.1784 30.5204 51.3788 30.5204H40.9419V28.665C40.9419 27.6402 40.1113 26.8097 39.0865 26.8097H24.2435C23.2187 26.8097 22.3881 27.6402 22.3881 28.665V30.5204H11.9512C11.1516 30.5204 10.4442 30.0107 10.1915 29.2516L4.4297 11.9667H58.9003ZM37.2311 30.5204V34.2312H26.0989V30.5204H37.2311ZM59.6193 50.9295C59.6193 51.9524 58.7868 52.7849 57.7639 52.7849H5.56611C4.54324 52.7849 3.71074 51.9524 3.71074 50.9295V21.5446L6.67112 30.4252C7.4297 32.7019 9.55178 34.2312 11.9512 34.2312H22.3881V36.0865C22.3881 37.1113 23.2187 37.9419 24.2435 37.9419H39.0865C40.1113 37.9419 40.9419 37.1113 40.9419 36.0865V34.2312H51.3788C53.7782 34.2312 55.9003 32.7019 56.6589 30.4252L59.6193 21.5446V50.9295Z" fill="white"/>
</svg>
