<svg width="202" height="184" viewBox="0 0 202 184" fill="none" xmlns="http://www.w3.org/2000/svg">
<path fill-rule="evenodd" clip-rule="evenodd" d="M120.859 111.835C107.535 136.357 76.8524 145.409 52.3193 132.05C27.7936 118.695 18.7135 87.9901 32.0383 63.4688C45.3624 38.9466 76.0448 29.8949 100.571 43.2499C125.103 56.609 134.182 87.3135 120.859 111.835ZM24.2755 59.2423C8.62139 88.0514 19.2953 124.125 48.102 139.811C76.9158 155.502 112.959 144.868 128.614 116.059C144.267 87.2486 133.601 51.1794 104.787 35.4882C75.9805 19.8021 39.9299 30.4319 24.2755 59.2423Z" fill="#A6B3BE"/>
<path fill-rule="evenodd" clip-rule="evenodd" d="M196.196 148.649L191.861 156.759C190.178 159.905 186.257 161.041 183.103 159.296L132.501 131L143.305 111.997L193.53 139.789C196.684 141.535 197.878 145.501 196.196 148.649Z" fill="#E4EAF0"/>
<path fill-rule="evenodd" clip-rule="evenodd" d="M194.582 151.484L192.124 156.038C190.67 158.735 187.305 159.714 184.613 158.238L133.095 129.992L137.389 122.033L192.309 152.143C193.125 152.59 194.142 152.299 194.582 151.484Z" fill="#D8DEE9"/>
<path fill-rule="evenodd" clip-rule="evenodd" d="M129.04 108.177L122.612 119.603L135.375 126.306L141.803 114.88L129.04 108.177Z" fill="#A6B3BE"/>
<path fill-rule="evenodd" clip-rule="evenodd" d="M101.242 41.9416C126.208 55.3908 135.317 86.5565 121.589 111.554C107.86 136.552 76.4922 145.914 51.5269 132.466C26.562 119.016 17.4519 87.8499 31.1816 62.8528C44.9096 37.8554 76.2772 28.4934 101.242 41.9416L179.337 134.199L101.242 41.9416Z" fill="#F5F6F8"/>
<path fill-rule="evenodd" clip-rule="evenodd" d="M49.4236 114.473C49.2463 114.787 49.0114 115.077 48.7188 115.326C47.423 116.431 45.5009 116.323 44.4249 115.085C36.251 105.676 32.8518 93.1219 35.098 80.639C35.3954 78.9975 36.9781 77.8527 38.6351 78.0853C40.2926 78.3188 41.3974 79.8394 41.1016 81.4834C39.1702 92.2091 42.0928 102.998 49.117 111.082C49.9497 112.041 50.0308 113.397 49.4236 114.473Z" fill="white"/>
<path fill-rule="evenodd" clip-rule="evenodd" d="M54.495 117.231C56.0069 118.05 56.5623 119.94 55.7374 121.451C54.9121 122.964 53.0182 123.525 51.5063 122.706C49.9953 121.886 49.439 119.997 50.2643 118.484C51.0893 116.973 52.9831 116.411 54.495 117.231Z" fill="white"/>
</svg>
