<svg width="17" height="16" viewBox="0 0 17 16" fill="none" xmlns="http://www.w3.org/2000/svg">
<path d="M7.60977 0.61236C7.98863 -0.0832052 8.98728 -0.0832061 9.36613 0.612359L11.2166 4.00963C11.3603 4.27353 11.6151 4.4588 11.9104 4.51418L15.7112 5.22683C16.4888 5.37263 16.7971 6.32098 16.254 6.89624L13.596 9.71117C13.39 9.92939 13.2928 10.2286 13.3314 10.5262L13.8291 14.3666C13.9308 15.1517 13.1232 15.7382 12.4081 15.3983L8.91723 13.7391C8.6456 13.61 8.3303 13.61 8.05868 13.7391L4.5678 15.3983C3.85274 15.7382 3.04507 15.1517 3.14682 14.3666L3.64451 10.5262C3.68308 10.2286 3.58594 9.92939 3.37989 9.71117L0.721942 6.89624C0.178763 6.32098 0.487109 5.37263 1.26474 5.22683L5.06546 4.51418C5.36082 4.4588 5.61561 4.27353 5.75935 4.00963L7.60977 0.61236Z" fill="#1991EB"/>
</svg>
