<svg width="17" height="16" viewBox="0 0 17 16" fill="none" xmlns="http://www.w3.org/2000/svg">
<path d="M7.95243 0.851523C8.14186 0.50374 8.64118 0.50374 8.83061 0.851522L10.681 4.24879C10.8966 4.64464 11.2788 4.92254 11.7219 5.00561L15.5226 5.71826C15.9114 5.79116 16.0656 6.26534 15.794 6.55297L13.136 9.3679C12.827 9.69522 12.6812 10.144 12.7391 10.5905L13.2368 14.4309C13.2877 14.8234 12.8838 15.1166 12.5263 14.9467L9.03543 13.2875C8.62799 13.0939 8.15504 13.0939 7.74761 13.2875L4.25673 14.9467C3.8992 15.1166 3.49536 14.8234 3.54624 14.4309L4.04393 10.5905C4.10179 10.144 3.95607 9.69522 3.647 9.3679L0.989051 6.55297C0.717461 6.26534 0.871636 5.79116 1.26045 5.71826L5.06117 5.00561C5.50421 4.92254 5.8864 4.64464 6.10201 4.24879L7.95243 0.851523Z" fill="white" stroke="#D8DEE9"/>
</svg>
